<mxfile host="app.diagrams.net" agent="Mozilla/5.0 (Windows NT 10.0; Win64; x64) AppleWebKit/537.36 (KHTML, like Gecko) Chrome/136.0.0.0 Safari/537.36" version="27.0.6">
  <diagram id="C5RBs43oDa-KdzZeNtuy" name="Page-1">
    <mxGraphModel dx="5542" dy="3557" grid="1" gridSize="10" guides="1" tooltips="1" connect="1" arrows="1" fold="1" page="1" pageScale="1" pageWidth="827" pageHeight="1169" math="0" shadow="0">
      <root>
        <mxCell id="WIyWlLk6GJQsqaUBKTNV-0" />
        <mxCell id="WIyWlLk6GJQsqaUBKTNV-1" parent="WIyWlLk6GJQsqaUBKTNV-0" />
        <mxCell id="zkfFHV4jXpPFQw0GAbJ--0" value="Client" style="swimlane;fontStyle=0;align=center;verticalAlign=top;childLayout=stackLayout;horizontal=1;startSize=26;horizontalStack=0;resizeParent=1;resizeLast=0;collapsible=1;marginBottom=0;rounded=0;shadow=0;strokeWidth=1;" parent="WIyWlLk6GJQsqaUBKTNV-1" vertex="1">
          <mxGeometry x="-100" y="264" width="160" height="128" as="geometry">
            <mxRectangle x="230" y="140" width="160" height="26" as="alternateBounds" />
          </mxGeometry>
        </mxCell>
        <mxCell id="zkfFHV4jXpPFQw0GAbJ--1" value="-id: int&#xa;-firstName: String&#xa;-lastName: String&#xa;-email: String&#xa;-phone: String&#xa;-address: String" style="text;align=left;verticalAlign=top;spacingLeft=4;spacingRight=4;overflow=hidden;rotatable=0;points=[[0,0.5],[1,0.5]];portConstraint=eastwest;" parent="zkfFHV4jXpPFQw0GAbJ--0" vertex="1">
          <mxGeometry y="26" width="160" height="94" as="geometry" />
        </mxCell>
        <mxCell id="zkfFHV4jXpPFQw0GAbJ--6" value="ConnectionFactory" style="swimlane;fontStyle=0;align=center;verticalAlign=top;childLayout=stackLayout;horizontal=1;startSize=26;horizontalStack=0;resizeParent=1;resizeLast=0;collapsible=1;marginBottom=0;rounded=0;shadow=0;strokeWidth=1;" parent="WIyWlLk6GJQsqaUBKTNV-1" vertex="1">
          <mxGeometry x="860" y="690" width="210" height="220" as="geometry">
            <mxRectangle x="130" y="380" width="160" height="26" as="alternateBounds" />
          </mxGeometry>
        </mxCell>
        <mxCell id="zkfFHV4jXpPFQw0GAbJ--7" value="-LOGGER: Logger&#xa;-DRIVER: String&#xa;-DBURL: String&#xa;-USER: String&#xa;-PASS: String&#xa;-singleInstance: ConncetionFactory" style="text;align=left;verticalAlign=top;spacingLeft=4;spacingRight=4;overflow=hidden;rotatable=0;points=[[0,0.5],[1,0.5]];portConstraint=eastwest;" parent="zkfFHV4jXpPFQw0GAbJ--6" vertex="1">
          <mxGeometry y="26" width="210" height="94" as="geometry" />
        </mxCell>
        <mxCell id="zkfFHV4jXpPFQw0GAbJ--9" value="" style="line;html=1;strokeWidth=1;align=left;verticalAlign=middle;spacingTop=-1;spacingLeft=3;spacingRight=3;rotatable=0;labelPosition=right;points=[];portConstraint=eastwest;" parent="zkfFHV4jXpPFQw0GAbJ--6" vertex="1">
          <mxGeometry y="120" width="210" height="8" as="geometry" />
        </mxCell>
        <mxCell id="zkfFHV4jXpPFQw0GAbJ--10" value="+createConnection(): Connection&#xa;+genConnection(): Connection&#xa;+close(connection: Connection): void&#xa;+close(statement: Statement): void&#xa;+close(resultSet: ResultSet): void" style="text;align=left;verticalAlign=top;spacingLeft=4;spacingRight=4;overflow=hidden;rotatable=0;points=[[0,0.5],[1,0.5]];portConstraint=eastwest;fontStyle=0" parent="zkfFHV4jXpPFQw0GAbJ--6" vertex="1">
          <mxGeometry y="128" width="210" height="92" as="geometry" />
        </mxCell>
        <mxCell id="zkfFHV4jXpPFQw0GAbJ--13" value="AbstractDAO&lt;T&gt;" style="swimlane;fontStyle=0;align=center;verticalAlign=top;childLayout=stackLayout;horizontal=1;startSize=26;horizontalStack=0;resizeParent=1;resizeLast=0;collapsible=1;marginBottom=0;rounded=0;shadow=0;strokeWidth=1;" parent="WIyWlLk6GJQsqaUBKTNV-1" vertex="1">
          <mxGeometry x="610" y="380" width="300" height="278" as="geometry">
            <mxRectangle x="340" y="380" width="170" height="26" as="alternateBounds" />
          </mxGeometry>
        </mxCell>
        <mxCell id="zkfFHV4jXpPFQw0GAbJ--14" value="-LOGGER: logger&#xa;-type: Class&lt;T&gt;" style="text;align=left;verticalAlign=top;spacingLeft=4;spacingRight=4;overflow=hidden;rotatable=0;points=[[0,0.5],[1,0.5]];portConstraint=eastwest;" parent="zkfFHV4jXpPFQw0GAbJ--13" vertex="1">
          <mxGeometry y="26" width="300" height="44" as="geometry" />
        </mxCell>
        <mxCell id="zkfFHV4jXpPFQw0GAbJ--15" value="" style="line;html=1;strokeWidth=1;align=left;verticalAlign=middle;spacingTop=-1;spacingLeft=3;spacingRight=3;rotatable=0;labelPosition=right;points=[];portConstraint=eastwest;" parent="zkfFHV4jXpPFQw0GAbJ--13" vertex="1">
          <mxGeometry y="70" width="300" height="8" as="geometry" />
        </mxCell>
        <mxCell id="z1YwKlO6LpL1jLKIhNCp-19" value="+ createSelectQuery(field: String): String&lt;div&gt;+createObjects(resultSet: ResultSet): List&amp;lt;T&amp;gt;&lt;/div&gt;&lt;div&gt;+findById(id: int): T&lt;/div&gt;&lt;div&gt;+findAllQuery(): String&lt;/div&gt;&lt;div&gt;+findAll(): List&amp;lt;T&amp;gt;&lt;/div&gt;&lt;div&gt;+insertQuery(): String&lt;/div&gt;&lt;div&gt;+ insert(t: T): T&lt;/div&gt;&lt;div&gt;+deleteQuery(): String&lt;/div&gt;&lt;div&gt;+delete(id: int): void&lt;/div&gt;&lt;div&gt;+ updateQuery(): String&lt;/div&gt;&lt;div&gt;+update(t: T): T&lt;/div&gt;&lt;div&gt;+populateTable(objects: List&amp;lt;T&amp;gt;, table: JTable): void&lt;/div&gt;&lt;div&gt;&lt;br&gt;&lt;/div&gt;" style="text;html=1;align=left;verticalAlign=middle;resizable=0;points=[];autosize=1;strokeColor=none;fillColor=none;" vertex="1" parent="zkfFHV4jXpPFQw0GAbJ--13">
          <mxGeometry y="78" width="300" height="200" as="geometry" />
        </mxCell>
        <mxCell id="z1YwKlO6LpL1jLKIhNCp-2" value="Order" style="swimlane;fontStyle=0;align=center;verticalAlign=top;childLayout=stackLayout;horizontal=1;startSize=26;horizontalStack=0;resizeParent=1;resizeLast=0;collapsible=1;marginBottom=0;rounded=0;shadow=0;strokeWidth=1;" vertex="1" parent="WIyWlLk6GJQsqaUBKTNV-1">
          <mxGeometry x="-230" y="552" width="160" height="128" as="geometry">
            <mxRectangle x="230" y="140" width="160" height="26" as="alternateBounds" />
          </mxGeometry>
        </mxCell>
        <mxCell id="z1YwKlO6LpL1jLKIhNCp-3" value="-id: int&#xa;-clientId: int&#xa;-productId: int&#xa;-quantity: int&#xa;-finalPrice: int&#xa;-shippingAddress: String" style="text;align=left;verticalAlign=top;spacingLeft=4;spacingRight=4;overflow=hidden;rotatable=0;points=[[0,0.5],[1,0.5]];portConstraint=eastwest;" vertex="1" parent="z1YwKlO6LpL1jLKIhNCp-2">
          <mxGeometry y="26" width="160" height="94" as="geometry" />
        </mxCell>
        <mxCell id="z1YwKlO6LpL1jLKIhNCp-4" value="Product" style="swimlane;fontStyle=0;align=center;verticalAlign=top;childLayout=stackLayout;horizontal=1;startSize=26;horizontalStack=0;resizeParent=1;resizeLast=0;collapsible=1;marginBottom=0;rounded=0;shadow=0;strokeWidth=1;" vertex="1" parent="WIyWlLk6GJQsqaUBKTNV-1">
          <mxGeometry x="-120" y="12" width="160" height="128" as="geometry">
            <mxRectangle x="230" y="140" width="160" height="26" as="alternateBounds" />
          </mxGeometry>
        </mxCell>
        <mxCell id="z1YwKlO6LpL1jLKIhNCp-5" value="-id: int&#xa;-name: String&#xa;-description: String&#xa;-price: String&#xa;-stockQuantity: String&#xa;" style="text;align=left;verticalAlign=top;spacingLeft=4;spacingRight=4;overflow=hidden;rotatable=0;points=[[0,0.5],[1,0.5]];portConstraint=eastwest;" vertex="1" parent="z1YwKlO6LpL1jLKIhNCp-4">
          <mxGeometry y="26" width="160" height="94" as="geometry" />
        </mxCell>
        <mxCell id="z1YwKlO6LpL1jLKIhNCp-6" value="Bill (record)" style="swimlane;fontStyle=0;align=center;verticalAlign=top;childLayout=stackLayout;horizontal=1;startSize=26;horizontalStack=0;resizeParent=1;resizeLast=0;collapsible=1;marginBottom=0;rounded=0;shadow=0;strokeWidth=1;" vertex="1" parent="WIyWlLk6GJQsqaUBKTNV-1">
          <mxGeometry x="-120" y="820" width="160" height="140" as="geometry">
            <mxRectangle x="230" y="140" width="160" height="26" as="alternateBounds" />
          </mxGeometry>
        </mxCell>
        <mxCell id="z1YwKlO6LpL1jLKIhNCp-7" value="-id: int&#xa;-orderId: int&#xa;-firstName: String&#xa;-lastName: String&#xa;-productName: String&#xa;-quantity: String&#xa;-price: int" style="text;align=left;verticalAlign=top;spacingLeft=4;spacingRight=4;overflow=hidden;rotatable=0;points=[[0,0.5],[1,0.5]];portConstraint=eastwest;" vertex="1" parent="z1YwKlO6LpL1jLKIhNCp-6">
          <mxGeometry y="26" width="160" height="114" as="geometry" />
        </mxCell>
        <mxCell id="z1YwKlO6LpL1jLKIhNCp-8" value="ProductDAO" style="swimlane;fontStyle=0;align=center;verticalAlign=top;childLayout=stackLayout;horizontal=1;startSize=26;horizontalStack=0;resizeParent=1;resizeLast=0;collapsible=1;marginBottom=0;rounded=0;shadow=0;strokeWidth=1;" vertex="1" parent="WIyWlLk6GJQsqaUBKTNV-1">
          <mxGeometry x="260" y="133" width="210" height="70" as="geometry">
            <mxRectangle x="230" y="140" width="160" height="26" as="alternateBounds" />
          </mxGeometry>
        </mxCell>
        <mxCell id="z1YwKlO6LpL1jLKIhNCp-9" value="+findByName (name: String): Product" style="text;align=left;verticalAlign=top;spacingLeft=4;spacingRight=4;overflow=hidden;rotatable=0;points=[[0,0.5],[1,0.5]];portConstraint=eastwest;" vertex="1" parent="z1YwKlO6LpL1jLKIhNCp-8">
          <mxGeometry y="26" width="210" height="34" as="geometry" />
        </mxCell>
        <mxCell id="z1YwKlO6LpL1jLKIhNCp-10" value="ClientDAO" style="swimlane;fontStyle=0;align=center;verticalAlign=top;childLayout=stackLayout;horizontal=1;startSize=26;horizontalStack=0;resizeParent=1;resizeLast=0;collapsible=1;marginBottom=0;rounded=0;shadow=0;strokeWidth=1;" vertex="1" parent="WIyWlLk6GJQsqaUBKTNV-1">
          <mxGeometry x="210" y="366" width="240" height="64" as="geometry">
            <mxRectangle x="230" y="140" width="160" height="26" as="alternateBounds" />
          </mxGeometry>
        </mxCell>
        <mxCell id="z1YwKlO6LpL1jLKIhNCp-11" value="+findByFullName (fullName: String): Client" style="text;align=left;verticalAlign=top;spacingLeft=4;spacingRight=4;overflow=hidden;rotatable=0;points=[[0,0.5],[1,0.5]];portConstraint=eastwest;" vertex="1" parent="z1YwKlO6LpL1jLKIhNCp-10">
          <mxGeometry y="26" width="240" height="34" as="geometry" />
        </mxCell>
        <mxCell id="z1YwKlO6LpL1jLKIhNCp-12" value="OrderDAO" style="swimlane;fontStyle=0;align=center;verticalAlign=top;childLayout=stackLayout;horizontal=1;startSize=26;horizontalStack=0;resizeParent=1;resizeLast=0;collapsible=1;marginBottom=0;rounded=0;shadow=0;strokeWidth=1;" vertex="1" parent="WIyWlLk6GJQsqaUBKTNV-1">
          <mxGeometry x="80" y="581" width="210" height="70" as="geometry">
            <mxRectangle x="230" y="140" width="160" height="26" as="alternateBounds" />
          </mxGeometry>
        </mxCell>
        <mxCell id="z1YwKlO6LpL1jLKIhNCp-13" value="+addOrder (order: Order): int" style="text;align=left;verticalAlign=top;spacingLeft=4;spacingRight=4;overflow=hidden;rotatable=0;points=[[0,0.5],[1,0.5]];portConstraint=eastwest;" vertex="1" parent="z1YwKlO6LpL1jLKIhNCp-12">
          <mxGeometry y="26" width="210" height="34" as="geometry" />
        </mxCell>
        <mxCell id="z1YwKlO6LpL1jLKIhNCp-15" value="BillDAO" style="swimlane;fontStyle=0;align=center;verticalAlign=top;childLayout=stackLayout;horizontal=1;startSize=26;horizontalStack=0;resizeParent=1;resizeLast=0;collapsible=1;marginBottom=0;rounded=0;shadow=0;strokeWidth=1;" vertex="1" parent="WIyWlLk6GJQsqaUBKTNV-1">
          <mxGeometry x="220" y="750" width="210" height="70" as="geometry">
            <mxRectangle x="230" y="140" width="160" height="26" as="alternateBounds" />
          </mxGeometry>
        </mxCell>
        <mxCell id="z1YwKlO6LpL1jLKIhNCp-16" value="+insertBill (bill: Bill): void " style="text;align=left;verticalAlign=top;spacingLeft=4;spacingRight=4;overflow=hidden;rotatable=0;points=[[0,0.5],[1,0.5]];portConstraint=eastwest;" vertex="1" parent="z1YwKlO6LpL1jLKIhNCp-15">
          <mxGeometry y="26" width="210" height="34" as="geometry" />
        </mxCell>
        <mxCell id="z1YwKlO6LpL1jLKIhNCp-21" value="ClientBLL" style="swimlane;fontStyle=0;align=center;verticalAlign=top;childLayout=stackLayout;horizontal=1;startSize=26;horizontalStack=0;resizeParent=1;resizeLast=0;collapsible=1;marginBottom=0;rounded=0;shadow=0;strokeWidth=1;" vertex="1" parent="WIyWlLk6GJQsqaUBKTNV-1">
          <mxGeometry x="-710" y="340" width="530" height="180" as="geometry">
            <mxRectangle x="550" y="140" width="160" height="26" as="alternateBounds" />
          </mxGeometry>
        </mxCell>
        <mxCell id="z1YwKlO6LpL1jLKIhNCp-22" value="-validators: List&lt;Validator&lt;Client&gt;&gt;&#xa;-clientDAO: ClientDAO" style="text;align=left;verticalAlign=top;spacingLeft=4;spacingRight=4;overflow=hidden;rotatable=0;points=[[0,0.5],[1,0.5]];portConstraint=eastwest;" vertex="1" parent="z1YwKlO6LpL1jLKIhNCp-21">
          <mxGeometry y="26" width="530" height="34" as="geometry" />
        </mxCell>
        <mxCell id="z1YwKlO6LpL1jLKIhNCp-27" value="" style="line;html=1;strokeWidth=1;align=left;verticalAlign=middle;spacingTop=-1;spacingLeft=3;spacingRight=3;rotatable=0;labelPosition=right;points=[];portConstraint=eastwest;" vertex="1" parent="z1YwKlO6LpL1jLKIhNCp-21">
          <mxGeometry y="60" width="530" height="8" as="geometry" />
        </mxCell>
        <mxCell id="z1YwKlO6LpL1jLKIhNCp-28" value="-findById(id: int): Client&#xa;-findByFullName(fullName: String): Client&#xa;-findAll(): List&lt;Client&gt;&#xa;-insert(firstName: String, lastName: String, email: String, phone: String, address: String): Client&#xa;-update(client: Client): Client&#xa;-delete(id: int): void&#xa;-populateTable(clients: List&lt;Client&gt;, clientTable: JTable): void" style="text;align=left;verticalAlign=top;spacingLeft=4;spacingRight=4;overflow=hidden;rotatable=0;points=[[0,0.5],[1,0.5]];portConstraint=eastwest;" vertex="1" parent="z1YwKlO6LpL1jLKIhNCp-21">
          <mxGeometry y="68" width="530" height="112" as="geometry" />
        </mxCell>
        <mxCell id="z1YwKlO6LpL1jLKIhNCp-31" value="OrderBLL" style="swimlane;fontStyle=0;align=center;verticalAlign=top;childLayout=stackLayout;horizontal=1;startSize=26;horizontalStack=0;resizeParent=1;resizeLast=0;collapsible=1;marginBottom=0;rounded=0;shadow=0;strokeWidth=1;" vertex="1" parent="WIyWlLk6GJQsqaUBKTNV-1">
          <mxGeometry x="-880" y="710" width="530" height="200" as="geometry">
            <mxRectangle x="550" y="140" width="160" height="26" as="alternateBounds" />
          </mxGeometry>
        </mxCell>
        <mxCell id="z1YwKlO6LpL1jLKIhNCp-32" value="-validators: List&lt;Validator&lt;Order&gt;&gt;&#xa;-clientDAO: ClientDAO&#xa;-productDAO: ProductDAO&#xa;-orderDAO: OrderDAO&#xa;-billDAO: BillDAO" style="text;align=left;verticalAlign=top;spacingLeft=4;spacingRight=4;overflow=hidden;rotatable=0;points=[[0,0.5],[1,0.5]];portConstraint=eastwest;" vertex="1" parent="z1YwKlO6LpL1jLKIhNCp-31">
          <mxGeometry y="26" width="530" height="84" as="geometry" />
        </mxCell>
        <mxCell id="z1YwKlO6LpL1jLKIhNCp-33" value="" style="line;html=1;strokeWidth=1;align=left;verticalAlign=middle;spacingTop=-1;spacingLeft=3;spacingRight=3;rotatable=0;labelPosition=right;points=[];portConstraint=eastwest;" vertex="1" parent="z1YwKlO6LpL1jLKIhNCp-31">
          <mxGeometry y="110" width="530" height="8" as="geometry" />
        </mxCell>
        <mxCell id="z1YwKlO6LpL1jLKIhNCp-34" value="-findById(id: int): Order&#xa;-findAll(): List&lt;Order&gt;&#xa;-placeOrder(clientName: String, productName: String, quantity: int, address: String): void&#xa;-populateTable(orders: List&lt;Order&gt;, tablke: JTable): void" style="text;align=left;verticalAlign=top;spacingLeft=4;spacingRight=4;overflow=hidden;rotatable=0;points=[[0,0.5],[1,0.5]];portConstraint=eastwest;" vertex="1" parent="z1YwKlO6LpL1jLKIhNCp-31">
          <mxGeometry y="118" width="530" height="82" as="geometry" />
        </mxCell>
        <mxCell id="z1YwKlO6LpL1jLKIhNCp-35" value="ProductBLL" style="swimlane;fontStyle=0;align=center;verticalAlign=top;childLayout=stackLayout;horizontal=1;startSize=26;horizontalStack=0;resizeParent=1;resizeLast=0;collapsible=1;marginBottom=0;rounded=0;shadow=0;strokeWidth=1;" vertex="1" parent="WIyWlLk6GJQsqaUBKTNV-1">
          <mxGeometry x="711" y="100" width="530" height="180" as="geometry">
            <mxRectangle x="550" y="140" width="160" height="26" as="alternateBounds" />
          </mxGeometry>
        </mxCell>
        <mxCell id="z1YwKlO6LpL1jLKIhNCp-36" value="-validators: List&lt;Validator&lt;Product&gt;&gt;&#xa;-productDAO: ProductDAO" style="text;align=left;verticalAlign=top;spacingLeft=4;spacingRight=4;overflow=hidden;rotatable=0;points=[[0,0.5],[1,0.5]];portConstraint=eastwest;" vertex="1" parent="z1YwKlO6LpL1jLKIhNCp-35">
          <mxGeometry y="26" width="530" height="34" as="geometry" />
        </mxCell>
        <mxCell id="z1YwKlO6LpL1jLKIhNCp-37" value="" style="line;html=1;strokeWidth=1;align=left;verticalAlign=middle;spacingTop=-1;spacingLeft=3;spacingRight=3;rotatable=0;labelPosition=right;points=[];portConstraint=eastwest;" vertex="1" parent="z1YwKlO6LpL1jLKIhNCp-35">
          <mxGeometry y="60" width="530" height="8" as="geometry" />
        </mxCell>
        <mxCell id="z1YwKlO6LpL1jLKIhNCp-38" value="-findById(id: int): Product&#xa;-findByName(name: String): Product&#xa;-findAll(): List&lt;Product&gt;&#xa;-insert(name: String, description: String, priceStr: String,stockStr: String): Product&#xa;-update(product: Product): Product&#xa;-delete(id: int): void&#xa;-populateTable(products: List&lt;Product&gt;, productTable: JTable): void" style="text;align=left;verticalAlign=top;spacingLeft=4;spacingRight=4;overflow=hidden;rotatable=0;points=[[0,0.5],[1,0.5]];portConstraint=eastwest;" vertex="1" parent="z1YwKlO6LpL1jLKIhNCp-35">
          <mxGeometry y="68" width="530" height="112" as="geometry" />
        </mxCell>
        <mxCell id="z1YwKlO6LpL1jLKIhNCp-49" value="PhoneValidator" style="swimlane;fontStyle=0;align=center;verticalAlign=top;childLayout=stackLayout;horizontal=1;startSize=26;horizontalStack=0;resizeParent=1;resizeLast=0;collapsible=1;marginBottom=0;rounded=0;shadow=0;strokeWidth=1;" vertex="1" parent="WIyWlLk6GJQsqaUBKTNV-1">
          <mxGeometry x="-220" y="155" width="200" height="70" as="geometry">
            <mxRectangle x="230" y="140" width="160" height="26" as="alternateBounds" />
          </mxGeometry>
        </mxCell>
        <mxCell id="z1YwKlO6LpL1jLKIhNCp-50" value="+validate(t: Client): void" style="text;align=left;verticalAlign=top;spacingLeft=4;spacingRight=4;overflow=hidden;rotatable=0;points=[[0,0.5],[1,0.5]];portConstraint=eastwest;" vertex="1" parent="z1YwKlO6LpL1jLKIhNCp-49">
          <mxGeometry y="26" width="200" height="24" as="geometry" />
        </mxCell>
        <mxCell id="z1YwKlO6LpL1jLKIhNCp-51" value="OrderValidator" style="swimlane;fontStyle=0;align=center;verticalAlign=top;childLayout=stackLayout;horizontal=1;startSize=26;horizontalStack=0;resizeParent=1;resizeLast=0;collapsible=1;marginBottom=0;rounded=0;shadow=0;strokeWidth=1;" vertex="1" parent="WIyWlLk6GJQsqaUBKTNV-1">
          <mxGeometry x="-560" y="581" width="200" height="70" as="geometry">
            <mxRectangle x="230" y="140" width="160" height="26" as="alternateBounds" />
          </mxGeometry>
        </mxCell>
        <mxCell id="z1YwKlO6LpL1jLKIhNCp-52" value="+validate(t: Order): void" style="text;align=left;verticalAlign=top;spacingLeft=4;spacingRight=4;overflow=hidden;rotatable=0;points=[[0,0.5],[1,0.5]];portConstraint=eastwest;" vertex="1" parent="z1YwKlO6LpL1jLKIhNCp-51">
          <mxGeometry y="26" width="200" height="24" as="geometry" />
        </mxCell>
        <mxCell id="z1YwKlO6LpL1jLKIhNCp-58" value="EmailValidator" style="swimlane;fontStyle=1;align=center;verticalAlign=top;childLayout=stackLayout;horizontal=1;startSize=26;horizontalStack=0;resizeParent=1;resizeParentMax=0;resizeLast=0;collapsible=1;marginBottom=0;whiteSpace=wrap;html=1;" vertex="1" parent="WIyWlLk6GJQsqaUBKTNV-1">
          <mxGeometry x="-310" y="-80" width="160" height="86" as="geometry" />
        </mxCell>
        <mxCell id="z1YwKlO6LpL1jLKIhNCp-59" value="-EMAIL_PATTERN: String" style="text;strokeColor=none;fillColor=none;align=left;verticalAlign=top;spacingLeft=4;spacingRight=4;overflow=hidden;rotatable=0;points=[[0,0.5],[1,0.5]];portConstraint=eastwest;whiteSpace=wrap;html=1;" vertex="1" parent="z1YwKlO6LpL1jLKIhNCp-58">
          <mxGeometry y="26" width="160" height="26" as="geometry" />
        </mxCell>
        <mxCell id="z1YwKlO6LpL1jLKIhNCp-60" value="" style="line;strokeWidth=1;fillColor=none;align=left;verticalAlign=middle;spacingTop=-1;spacingLeft=3;spacingRight=3;rotatable=0;labelPosition=right;points=[];portConstraint=eastwest;strokeColor=inherit;" vertex="1" parent="z1YwKlO6LpL1jLKIhNCp-58">
          <mxGeometry y="52" width="160" height="8" as="geometry" />
        </mxCell>
        <mxCell id="z1YwKlO6LpL1jLKIhNCp-61" value="&lt;span style=&quot;text-wrap-mode: nowrap;&quot;&gt;+validate(t: Product): void&lt;/span&gt;" style="text;strokeColor=none;fillColor=none;align=left;verticalAlign=top;spacingLeft=4;spacingRight=4;overflow=hidden;rotatable=0;points=[[0,0.5],[1,0.5]];portConstraint=eastwest;whiteSpace=wrap;html=1;" vertex="1" parent="z1YwKlO6LpL1jLKIhNCp-58">
          <mxGeometry y="60" width="160" height="26" as="geometry" />
        </mxCell>
        <mxCell id="z1YwKlO6LpL1jLKIhNCp-62" value="ClientController" style="swimlane;fontStyle=1;align=center;verticalAlign=top;childLayout=stackLayout;horizontal=1;startSize=26;horizontalStack=0;resizeParent=1;resizeParentMax=0;resizeLast=0;collapsible=1;marginBottom=0;whiteSpace=wrap;html=1;" vertex="1" parent="WIyWlLk6GJQsqaUBKTNV-1">
          <mxGeometry x="-810" y="110" width="160" height="150" as="geometry" />
        </mxCell>
        <mxCell id="z1YwKlO6LpL1jLKIhNCp-63" value="-view: ClientView&lt;div&gt;-client: ClientBLL&lt;/div&gt;&lt;div&gt;-orders: OrderBLL&lt;/div&gt;" style="text;strokeColor=none;fillColor=none;align=left;verticalAlign=top;spacingLeft=4;spacingRight=4;overflow=hidden;rotatable=0;points=[[0,0.5],[1,0.5]];portConstraint=eastwest;whiteSpace=wrap;html=1;" vertex="1" parent="z1YwKlO6LpL1jLKIhNCp-62">
          <mxGeometry y="26" width="160" height="54" as="geometry" />
        </mxCell>
        <mxCell id="z1YwKlO6LpL1jLKIhNCp-64" value="" style="line;strokeWidth=1;fillColor=none;align=left;verticalAlign=middle;spacingTop=-1;spacingLeft=3;spacingRight=3;rotatable=0;labelPosition=right;points=[];portConstraint=eastwest;strokeColor=inherit;" vertex="1" parent="z1YwKlO6LpL1jLKIhNCp-62">
          <mxGeometry y="80" width="160" height="8" as="geometry" />
        </mxCell>
        <mxCell id="z1YwKlO6LpL1jLKIhNCp-65" value="&lt;span style=&quot;text-wrap-mode: nowrap;&quot;&gt;+addClient(): void&lt;/span&gt;&lt;div&gt;&lt;span style=&quot;text-wrap-mode: nowrap;&quot;&gt;+editClient(): void&lt;/span&gt;&lt;/div&gt;&lt;div&gt;&lt;span style=&quot;text-wrap-mode: nowrap;&quot;&gt;+deleteClient(): void&lt;/span&gt;&lt;/div&gt;" style="text;strokeColor=none;fillColor=none;align=left;verticalAlign=top;spacingLeft=4;spacingRight=4;overflow=hidden;rotatable=0;points=[[0,0.5],[1,0.5]];portConstraint=eastwest;whiteSpace=wrap;html=1;" vertex="1" parent="z1YwKlO6LpL1jLKIhNCp-62">
          <mxGeometry y="88" width="160" height="62" as="geometry" />
        </mxCell>
        <mxCell id="z1YwKlO6LpL1jLKIhNCp-66" value="ProductController" style="swimlane;fontStyle=1;align=center;verticalAlign=top;childLayout=stackLayout;horizontal=1;startSize=26;horizontalStack=0;resizeParent=1;resizeParentMax=0;resizeLast=0;collapsible=1;marginBottom=0;whiteSpace=wrap;html=1;" vertex="1" parent="WIyWlLk6GJQsqaUBKTNV-1">
          <mxGeometry x="-490" y="-10" width="160" height="150" as="geometry" />
        </mxCell>
        <mxCell id="z1YwKlO6LpL1jLKIhNCp-67" value="-view: ProductView&lt;div&gt;-productBLL: ProductBLL&lt;/div&gt;&lt;div&gt;-orders: OrderBLL&lt;/div&gt;" style="text;strokeColor=none;fillColor=none;align=left;verticalAlign=top;spacingLeft=4;spacingRight=4;overflow=hidden;rotatable=0;points=[[0,0.5],[1,0.5]];portConstraint=eastwest;whiteSpace=wrap;html=1;" vertex="1" parent="z1YwKlO6LpL1jLKIhNCp-66">
          <mxGeometry y="26" width="160" height="54" as="geometry" />
        </mxCell>
        <mxCell id="z1YwKlO6LpL1jLKIhNCp-68" value="" style="line;strokeWidth=1;fillColor=none;align=left;verticalAlign=middle;spacingTop=-1;spacingLeft=3;spacingRight=3;rotatable=0;labelPosition=right;points=[];portConstraint=eastwest;strokeColor=inherit;" vertex="1" parent="z1YwKlO6LpL1jLKIhNCp-66">
          <mxGeometry y="80" width="160" height="8" as="geometry" />
        </mxCell>
        <mxCell id="z1YwKlO6LpL1jLKIhNCp-69" value="&lt;span style=&quot;text-wrap-mode: nowrap;&quot;&gt;+addProduct(): void&lt;/span&gt;&lt;div&gt;&lt;span style=&quot;text-wrap-mode: nowrap;&quot;&gt;+editProduct(): void&lt;/span&gt;&lt;/div&gt;&lt;div&gt;&lt;span style=&quot;text-wrap-mode: nowrap;&quot;&gt;+deleteProduct(): void&lt;/span&gt;&lt;/div&gt;" style="text;strokeColor=none;fillColor=none;align=left;verticalAlign=top;spacingLeft=4;spacingRight=4;overflow=hidden;rotatable=0;points=[[0,0.5],[1,0.5]];portConstraint=eastwest;whiteSpace=wrap;html=1;" vertex="1" parent="z1YwKlO6LpL1jLKIhNCp-66">
          <mxGeometry y="88" width="160" height="62" as="geometry" />
        </mxCell>
        <mxCell id="z1YwKlO6LpL1jLKIhNCp-70" value="OrderController" style="swimlane;fontStyle=1;align=center;verticalAlign=top;childLayout=stackLayout;horizontal=1;startSize=26;horizontalStack=0;resizeParent=1;resizeParentMax=0;resizeLast=0;collapsible=1;marginBottom=0;whiteSpace=wrap;html=1;" vertex="1" parent="WIyWlLk6GJQsqaUBKTNV-1">
          <mxGeometry x="-1170" y="960" width="160" height="130" as="geometry" />
        </mxCell>
        <mxCell id="z1YwKlO6LpL1jLKIhNCp-71" value="-view: OrderView&lt;div&gt;-client: ClientBLL&lt;/div&gt;&lt;div&gt;-orders: OrderBLL&lt;/div&gt;&lt;div&gt;-products: ProductBLL&lt;/div&gt;" style="text;strokeColor=none;fillColor=none;align=left;verticalAlign=top;spacingLeft=4;spacingRight=4;overflow=hidden;rotatable=0;points=[[0,0.5],[1,0.5]];portConstraint=eastwest;whiteSpace=wrap;html=1;" vertex="1" parent="z1YwKlO6LpL1jLKIhNCp-70">
          <mxGeometry y="26" width="160" height="74" as="geometry" />
        </mxCell>
        <mxCell id="z1YwKlO6LpL1jLKIhNCp-72" value="" style="line;strokeWidth=1;fillColor=none;align=left;verticalAlign=middle;spacingTop=-1;spacingLeft=3;spacingRight=3;rotatable=0;labelPosition=right;points=[];portConstraint=eastwest;strokeColor=inherit;" vertex="1" parent="z1YwKlO6LpL1jLKIhNCp-70">
          <mxGeometry y="100" width="160" height="8" as="geometry" />
        </mxCell>
        <mxCell id="z1YwKlO6LpL1jLKIhNCp-73" value="&lt;span style=&quot;text-wrap-mode: nowrap;&quot;&gt;+createOrder(): void&lt;/span&gt;" style="text;strokeColor=none;fillColor=none;align=left;verticalAlign=top;spacingLeft=4;spacingRight=4;overflow=hidden;rotatable=0;points=[[0,0.5],[1,0.5]];portConstraint=eastwest;whiteSpace=wrap;html=1;" vertex="1" parent="z1YwKlO6LpL1jLKIhNCp-70">
          <mxGeometry y="108" width="160" height="22" as="geometry" />
        </mxCell>
        <mxCell id="z1YwKlO6LpL1jLKIhNCp-88" value="Extends" style="endArrow=block;endSize=16;endFill=0;html=1;rounded=0;exitX=1;exitY=0.5;exitDx=0;exitDy=0;entryX=0.378;entryY=-0.002;entryDx=0;entryDy=0;entryPerimeter=0;" edge="1" parent="WIyWlLk6GJQsqaUBKTNV-1" source="z1YwKlO6LpL1jLKIhNCp-9" target="zkfFHV4jXpPFQw0GAbJ--13">
          <mxGeometry width="160" relative="1" as="geometry">
            <mxPoint x="340" y="690" as="sourcePoint" />
            <mxPoint x="500" y="690" as="targetPoint" />
          </mxGeometry>
        </mxCell>
        <mxCell id="z1YwKlO6LpL1jLKIhNCp-89" value="Extends" style="endArrow=block;endSize=16;endFill=0;html=1;rounded=0;exitX=1;exitY=0.5;exitDx=0;exitDy=0;entryX=-0.019;entryY=0.367;entryDx=0;entryDy=0;entryPerimeter=0;" edge="1" parent="WIyWlLk6GJQsqaUBKTNV-1" source="z1YwKlO6LpL1jLKIhNCp-11" target="z1YwKlO6LpL1jLKIhNCp-19">
          <mxGeometry width="160" relative="1" as="geometry">
            <mxPoint x="450" y="680" as="sourcePoint" />
            <mxPoint x="510" y="480" as="targetPoint" />
          </mxGeometry>
        </mxCell>
        <mxCell id="z1YwKlO6LpL1jLKIhNCp-90" value="Extends" style="endArrow=block;endSize=16;endFill=0;html=1;rounded=0;exitX=1;exitY=0.5;exitDx=0;exitDy=0;entryX=-0.001;entryY=0.662;entryDx=0;entryDy=0;entryPerimeter=0;" edge="1" parent="WIyWlLk6GJQsqaUBKTNV-1" source="z1YwKlO6LpL1jLKIhNCp-13" target="z1YwKlO6LpL1jLKIhNCp-19">
          <mxGeometry width="160" relative="1" as="geometry">
            <mxPoint x="460" y="670" as="sourcePoint" />
            <mxPoint x="620" y="670" as="targetPoint" />
          </mxGeometry>
        </mxCell>
        <mxCell id="z1YwKlO6LpL1jLKIhNCp-91" value="Extends" style="endArrow=block;endSize=16;endFill=0;html=1;rounded=0;exitX=1;exitY=0.5;exitDx=0;exitDy=0;entryX=0.465;entryY=1.008;entryDx=0;entryDy=0;entryPerimeter=0;" edge="1" parent="WIyWlLk6GJQsqaUBKTNV-1" source="z1YwKlO6LpL1jLKIhNCp-16" target="z1YwKlO6LpL1jLKIhNCp-19">
          <mxGeometry width="160" relative="1" as="geometry">
            <mxPoint x="400" y="700" as="sourcePoint" />
            <mxPoint x="560" y="700" as="targetPoint" />
          </mxGeometry>
        </mxCell>
        <mxCell id="z1YwKlO6LpL1jLKIhNCp-94" value="Use" style="endArrow=open;endSize=12;dashed=1;html=1;rounded=0;exitX=0;exitY=0.5;exitDx=0;exitDy=0;entryX=1;entryY=0.5;entryDx=0;entryDy=0;" edge="1" parent="WIyWlLk6GJQsqaUBKTNV-1" source="z1YwKlO6LpL1jLKIhNCp-9" target="z1YwKlO6LpL1jLKIhNCp-5">
          <mxGeometry width="160" relative="1" as="geometry">
            <mxPoint x="145" y="210" as="sourcePoint" />
            <mxPoint x="305" y="210" as="targetPoint" />
          </mxGeometry>
        </mxCell>
        <mxCell id="z1YwKlO6LpL1jLKIhNCp-96" value="Use" style="endArrow=open;endSize=12;dashed=1;html=1;rounded=0;exitX=0;exitY=0.5;exitDx=0;exitDy=0;entryX=1;entryY=0.5;entryDx=0;entryDy=0;" edge="1" parent="WIyWlLk6GJQsqaUBKTNV-1" source="z1YwKlO6LpL1jLKIhNCp-11" target="zkfFHV4jXpPFQw0GAbJ--1">
          <mxGeometry width="160" relative="1" as="geometry">
            <mxPoint x="120" y="320" as="sourcePoint" />
            <mxPoint x="280" y="320" as="targetPoint" />
          </mxGeometry>
        </mxCell>
        <mxCell id="z1YwKlO6LpL1jLKIhNCp-97" value="Use" style="endArrow=open;endSize=12;dashed=1;html=1;rounded=0;exitX=0;exitY=0.5;exitDx=0;exitDy=0;" edge="1" parent="WIyWlLk6GJQsqaUBKTNV-1" source="z1YwKlO6LpL1jLKIhNCp-12" target="z1YwKlO6LpL1jLKIhNCp-3">
          <mxGeometry width="160" relative="1" as="geometry">
            <mxPoint x="100" y="332" as="sourcePoint" />
            <mxPoint x="260" y="332" as="targetPoint" />
          </mxGeometry>
        </mxCell>
        <mxCell id="z1YwKlO6LpL1jLKIhNCp-98" value="Use" style="endArrow=open;endSize=12;dashed=1;html=1;rounded=0;exitX=0;exitY=0.5;exitDx=0;exitDy=0;entryX=1;entryY=0.5;entryDx=0;entryDy=0;" edge="1" parent="WIyWlLk6GJQsqaUBKTNV-1" source="z1YwKlO6LpL1jLKIhNCp-16" target="z1YwKlO6LpL1jLKIhNCp-7">
          <mxGeometry width="160" relative="1" as="geometry">
            <mxPoint x="220" y="200" as="sourcePoint" />
            <mxPoint x="380" y="200" as="targetPoint" />
          </mxGeometry>
        </mxCell>
        <mxCell id="z1YwKlO6LpL1jLKIhNCp-99" value="" style="endArrow=diamondThin;endFill=0;endSize=24;html=1;rounded=0;exitX=-0.003;exitY=0.095;exitDx=0;exitDy=0;exitPerimeter=0;entryX=1;entryY=0.5;entryDx=0;entryDy=0;" edge="1" parent="WIyWlLk6GJQsqaUBKTNV-1" source="z1YwKlO6LpL1jLKIhNCp-38" target="z1YwKlO6LpL1jLKIhNCp-9">
          <mxGeometry width="160" relative="1" as="geometry">
            <mxPoint x="520" y="670" as="sourcePoint" />
            <mxPoint x="680" y="670" as="targetPoint" />
          </mxGeometry>
        </mxCell>
        <mxCell id="z1YwKlO6LpL1jLKIhNCp-100" value="" style="endArrow=diamondThin;endFill=0;endSize=24;html=1;rounded=0;exitX=1.018;exitY=0.274;exitDx=0;exitDy=0;exitPerimeter=0;entryX=0.275;entryY=1.131;entryDx=0;entryDy=0;entryPerimeter=0;" edge="1" parent="WIyWlLk6GJQsqaUBKTNV-1" source="z1YwKlO6LpL1jLKIhNCp-28" target="z1YwKlO6LpL1jLKIhNCp-11">
          <mxGeometry width="160" relative="1" as="geometry">
            <mxPoint x="-200" y="460" as="sourcePoint" />
            <mxPoint x="-439" y="457" as="targetPoint" />
          </mxGeometry>
        </mxCell>
        <mxCell id="z1YwKlO6LpL1jLKIhNCp-101" value="" style="endArrow=diamondThin;endFill=0;endSize=24;html=1;rounded=0;exitX=1.022;exitY=0.854;exitDx=0;exitDy=0;exitPerimeter=0;" edge="1" parent="WIyWlLk6GJQsqaUBKTNV-1" source="z1YwKlO6LpL1jLKIhNCp-32">
          <mxGeometry width="160" relative="1" as="geometry">
            <mxPoint x="-220" y="770" as="sourcePoint" />
            <mxPoint x="80" y="660" as="targetPoint" />
          </mxGeometry>
        </mxCell>
        <mxCell id="z1YwKlO6LpL1jLKIhNCp-102" value="" style="endArrow=diamondThin;endFill=0;endSize=24;html=1;rounded=0;exitX=1.079;exitY=0.478;exitDx=0;exitDy=0;exitPerimeter=0;entryX=0.5;entryY=1;entryDx=0;entryDy=0;" edge="1" parent="WIyWlLk6GJQsqaUBKTNV-1" source="z1YwKlO6LpL1jLKIhNCp-71" target="z1YwKlO6LpL1jLKIhNCp-31">
          <mxGeometry width="160" relative="1" as="geometry">
            <mxPoint x="-790" y="1140" as="sourcePoint" />
            <mxPoint x="-620" y="940" as="targetPoint" />
          </mxGeometry>
        </mxCell>
        <mxCell id="z1YwKlO6LpL1jLKIhNCp-103" value="" style="endArrow=diamondThin;endFill=0;endSize=24;html=1;rounded=0;exitX=1;exitY=0.75;exitDx=0;exitDy=0;entryX=0.655;entryY=0.008;entryDx=0;entryDy=0;entryPerimeter=0;" edge="1" parent="WIyWlLk6GJQsqaUBKTNV-1" source="z1YwKlO6LpL1jLKIhNCp-62" target="z1YwKlO6LpL1jLKIhNCp-21">
          <mxGeometry width="160" relative="1" as="geometry">
            <mxPoint x="-300" y="260" as="sourcePoint" />
            <mxPoint x="118" y="112" as="targetPoint" />
          </mxGeometry>
        </mxCell>
        <mxCell id="z1YwKlO6LpL1jLKIhNCp-104" value="" style="endArrow=diamondThin;endFill=0;endSize=24;html=1;rounded=0;exitX=1.039;exitY=-0.076;exitDx=0;exitDy=0;exitPerimeter=0;entryX=0;entryY=0.5;entryDx=0;entryDy=0;" edge="1" parent="WIyWlLk6GJQsqaUBKTNV-1" source="z1YwKlO6LpL1jLKIhNCp-69" target="z1YwKlO6LpL1jLKIhNCp-5">
          <mxGeometry width="160" relative="1" as="geometry">
            <mxPoint x="-130" y="60" as="sourcePoint" />
            <mxPoint x="288" y="-88" as="targetPoint" />
          </mxGeometry>
        </mxCell>
        <mxCell id="z1YwKlO6LpL1jLKIhNCp-105" value="" style="endArrow=open;endFill=1;endSize=12;html=1;rounded=0;entryX=1;entryY=0.5;entryDx=0;entryDy=0;exitX=0;exitY=0.5;exitDx=0;exitDy=0;" edge="1" parent="WIyWlLk6GJQsqaUBKTNV-1" source="z1YwKlO6LpL1jLKIhNCp-71" target="z1YwKlO6LpL1jLKIhNCp-107">
          <mxGeometry width="160" relative="1" as="geometry">
            <mxPoint x="-1210" y="900" as="sourcePoint" />
            <mxPoint x="-1140" y="824.09" as="targetPoint" />
          </mxGeometry>
        </mxCell>
        <mxCell id="z1YwKlO6LpL1jLKIhNCp-106" value="OrderView" style="swimlane;fontStyle=1;align=center;verticalAlign=top;childLayout=stackLayout;horizontal=1;startSize=26;horizontalStack=0;resizeParent=1;resizeParentMax=0;resizeLast=0;collapsible=1;marginBottom=0;whiteSpace=wrap;html=1;" vertex="1" parent="WIyWlLk6GJQsqaUBKTNV-1">
          <mxGeometry x="-1540" y="960" width="220" height="160" as="geometry" />
        </mxCell>
        <mxCell id="z1YwKlO6LpL1jLKIhNCp-107" value="-createOrderButton: JButton&lt;div&gt;&lt;span style=&quot;background-color: transparent; color: light-dark(rgb(0, 0, 0), rgb(255, 255, 255));&quot;&gt;-backButton:&lt;/span&gt;&lt;span style=&quot;background-color: transparent; color: light-dark(rgb(0, 0, 0), rgb(255, 255, 255));&quot;&gt;JButton&lt;/span&gt;&lt;/div&gt;&lt;div&gt;&lt;span style=&quot;background-color: transparent; color: light-dark(rgb(0, 0, 0), rgb(255, 255, 255));&quot;&gt;-orderTable: JTable&lt;/span&gt;&lt;/div&gt;&lt;div&gt;&lt;span style=&quot;background-color: transparent; color: light-dark(rgb(0, 0, 0), rgb(255, 255, 255));&quot;&gt;-quantityField: JTextField&lt;/span&gt;&lt;/div&gt;&lt;div&gt;&lt;span style=&quot;background-color: transparent; color: light-dark(rgb(0, 0, 0), rgb(255, 255, 255));&quot;&gt;-shippingAddressField:JTextField&lt;/span&gt;&lt;/div&gt;&lt;div&gt;-clientBox: JComboBox&amp;lt;String&amp;gt;&lt;/div&gt;&lt;div&gt;-productBox: JComboBox&amp;lt;String&amp;gt;&lt;/div&gt;&lt;div&gt;-orderScrollPane: JScrollPane&amp;nbsp;&lt;/div&gt;" style="text;strokeColor=none;fillColor=none;align=left;verticalAlign=top;spacingLeft=4;spacingRight=4;overflow=hidden;rotatable=0;points=[[0,0.5],[1,0.5]];portConstraint=eastwest;whiteSpace=wrap;html=1;" vertex="1" parent="z1YwKlO6LpL1jLKIhNCp-106">
          <mxGeometry y="26" width="220" height="134" as="geometry" />
        </mxCell>
        <mxCell id="z1YwKlO6LpL1jLKIhNCp-108" value="ClientView" style="swimlane;fontStyle=1;align=center;verticalAlign=top;childLayout=stackLayout;horizontal=1;startSize=26;horizontalStack=0;resizeParent=1;resizeParentMax=0;resizeLast=0;collapsible=1;marginBottom=0;whiteSpace=wrap;html=1;" vertex="1" parent="WIyWlLk6GJQsqaUBKTNV-1">
          <mxGeometry x="-1130" y="149" width="180" height="190" as="geometry" />
        </mxCell>
        <mxCell id="z1YwKlO6LpL1jLKIhNCp-109" value="-addButton: JButton&lt;div&gt;-editButton:&amp;nbsp;&lt;span style=&quot;background-color: transparent; color: light-dark(rgb(0, 0, 0), rgb(255, 255, 255));&quot;&gt;JButton&lt;/span&gt;&lt;/div&gt;&lt;div&gt;&lt;span style=&quot;background-color: transparent; color: light-dark(rgb(0, 0, 0), rgb(255, 255, 255));&quot;&gt;-deleteButton:&amp;nbsp;&lt;/span&gt;&lt;span style=&quot;background-color: transparent; color: light-dark(rgb(0, 0, 0), rgb(255, 255, 255));&quot;&gt;JButton&lt;/span&gt;&lt;/div&gt;&lt;div&gt;&lt;span style=&quot;background-color: transparent; color: light-dark(rgb(0, 0, 0), rgb(255, 255, 255));&quot;&gt;-backButton:&lt;/span&gt;&lt;span style=&quot;background-color: transparent; color: light-dark(rgb(0, 0, 0), rgb(255, 255, 255));&quot;&gt;JButton&lt;/span&gt;&lt;/div&gt;&lt;div&gt;&lt;span style=&quot;background-color: transparent; color: light-dark(rgb(0, 0, 0), rgb(255, 255, 255));&quot;&gt;-clientTable: JTable&lt;/span&gt;&lt;/div&gt;&lt;div&gt;&lt;span style=&quot;background-color: transparent; color: light-dark(rgb(0, 0, 0), rgb(255, 255, 255));&quot;&gt;-firstNameField: JTextField&lt;/span&gt;&lt;/div&gt;&lt;div&gt;&lt;span style=&quot;background-color: transparent; color: light-dark(rgb(0, 0, 0), rgb(255, 255, 255));&quot;&gt;-lastNameField:JTexField&lt;/span&gt;&lt;/div&gt;&lt;div&gt;-emailField: JTextField&lt;span style=&quot;background-color: transparent; color: light-dark(rgb(0, 0, 0), rgb(255, 255, 255));&quot;&gt;&lt;/span&gt;&lt;/div&gt;&lt;div&gt;-phoneNameField: JTextField&lt;/div&gt;&lt;div&gt;-addressField: JTextField&lt;/div&gt;" style="text;strokeColor=none;fillColor=none;align=left;verticalAlign=top;spacingLeft=4;spacingRight=4;overflow=hidden;rotatable=0;points=[[0,0.5],[1,0.5]];portConstraint=eastwest;whiteSpace=wrap;html=1;" vertex="1" parent="z1YwKlO6LpL1jLKIhNCp-108">
          <mxGeometry y="26" width="180" height="164" as="geometry" />
        </mxCell>
        <mxCell id="z1YwKlO6LpL1jLKIhNCp-110" value="" style="endArrow=open;endFill=1;endSize=12;html=1;rounded=0;entryX=1;entryY=0.5;entryDx=0;entryDy=0;" edge="1" parent="WIyWlLk6GJQsqaUBKTNV-1" source="z1YwKlO6LpL1jLKIhNCp-65" target="z1YwKlO6LpL1jLKIhNCp-109">
          <mxGeometry width="160" relative="1" as="geometry">
            <mxPoint x="-980" y="520" as="sourcePoint" />
            <mxPoint x="-960" y="474" as="targetPoint" />
          </mxGeometry>
        </mxCell>
        <mxCell id="z1YwKlO6LpL1jLKIhNCp-111" value="ProductView" style="swimlane;fontStyle=1;align=center;verticalAlign=top;childLayout=stackLayout;horizontal=1;startSize=26;horizontalStack=0;resizeParent=1;resizeParentMax=0;resizeLast=0;collapsible=1;marginBottom=0;whiteSpace=wrap;html=1;" vertex="1" parent="WIyWlLk6GJQsqaUBKTNV-1">
          <mxGeometry x="-740" y="-160" width="180" height="170" as="geometry" />
        </mxCell>
        <mxCell id="z1YwKlO6LpL1jLKIhNCp-112" value="-addButton: JButton&lt;div&gt;-editButton:&amp;nbsp;&lt;span style=&quot;background-color: transparent; color: light-dark(rgb(0, 0, 0), rgb(255, 255, 255));&quot;&gt;JButton&lt;/span&gt;&lt;/div&gt;&lt;div&gt;&lt;span style=&quot;background-color: transparent; color: light-dark(rgb(0, 0, 0), rgb(255, 255, 255));&quot;&gt;-deleteButton:&amp;nbsp;&lt;/span&gt;&lt;span style=&quot;background-color: transparent; color: light-dark(rgb(0, 0, 0), rgb(255, 255, 255));&quot;&gt;JButton&lt;/span&gt;&lt;/div&gt;&lt;div&gt;&lt;span style=&quot;background-color: transparent; color: light-dark(rgb(0, 0, 0), rgb(255, 255, 255));&quot;&gt;-backButton:&lt;/span&gt;&lt;span style=&quot;background-color: transparent; color: light-dark(rgb(0, 0, 0), rgb(255, 255, 255));&quot;&gt;JButton&lt;/span&gt;&lt;/div&gt;&lt;div&gt;&lt;span style=&quot;background-color: transparent; color: light-dark(rgb(0, 0, 0), rgb(255, 255, 255));&quot;&gt;-productTable: JTable&lt;/span&gt;&lt;/div&gt;&lt;div&gt;&lt;span style=&quot;background-color: transparent; color: light-dark(rgb(0, 0, 0), rgb(255, 255, 255));&quot;&gt;-nameField: JTextField&lt;/span&gt;&lt;/div&gt;&lt;div&gt;&lt;span style=&quot;background-color: transparent; color: light-dark(rgb(0, 0, 0), rgb(255, 255, 255));&quot;&gt;-descriptionField:JTextField&lt;/span&gt;&lt;/div&gt;&lt;div&gt;-priceField: JTextField&lt;span style=&quot;background-color: transparent; color: light-dark(rgb(0, 0, 0), rgb(255, 255, 255));&quot;&gt;&lt;/span&gt;&lt;/div&gt;&lt;div&gt;-stockField: JTextField&lt;/div&gt;" style="text;strokeColor=none;fillColor=none;align=left;verticalAlign=top;spacingLeft=4;spacingRight=4;overflow=hidden;rotatable=0;points=[[0,0.5],[1,0.5]];portConstraint=eastwest;whiteSpace=wrap;html=1;" vertex="1" parent="z1YwKlO6LpL1jLKIhNCp-111">
          <mxGeometry y="26" width="180" height="144" as="geometry" />
        </mxCell>
        <mxCell id="z1YwKlO6LpL1jLKIhNCp-113" value="" style="endArrow=open;endFill=1;endSize=12;html=1;rounded=0;entryX=1;entryY=0.5;entryDx=0;entryDy=0;exitX=0;exitY=0.5;exitDx=0;exitDy=0;" edge="1" parent="WIyWlLk6GJQsqaUBKTNV-1" source="z1YwKlO6LpL1jLKIhNCp-67" target="z1YwKlO6LpL1jLKIhNCp-112">
          <mxGeometry width="160" relative="1" as="geometry">
            <mxPoint x="-460" y="-130" as="sourcePoint" />
            <mxPoint x="-700" y="-139" as="targetPoint" />
          </mxGeometry>
        </mxCell>
        <mxCell id="z1YwKlO6LpL1jLKIhNCp-114" value="MainView" style="swimlane;fontStyle=1;align=center;verticalAlign=top;childLayout=stackLayout;horizontal=1;startSize=26;horizontalStack=0;resizeParent=1;resizeParentMax=0;resizeLast=0;collapsible=1;marginBottom=0;whiteSpace=wrap;html=1;" vertex="1" parent="WIyWlLk6GJQsqaUBKTNV-1">
          <mxGeometry x="-1350" y="600" width="180" height="80" as="geometry" />
        </mxCell>
        <mxCell id="z1YwKlO6LpL1jLKIhNCp-115" value="-clientButton: JButton&lt;div&gt;-productButton: JButton&lt;/div&gt;&lt;div&gt;-orderButton: JButton&lt;/div&gt;" style="text;strokeColor=none;fillColor=none;align=left;verticalAlign=top;spacingLeft=4;spacingRight=4;overflow=hidden;rotatable=0;points=[[0,0.5],[1,0.5]];portConstraint=eastwest;whiteSpace=wrap;html=1;" vertex="1" parent="z1YwKlO6LpL1jLKIhNCp-114">
          <mxGeometry y="26" width="180" height="54" as="geometry" />
        </mxCell>
        <mxCell id="z1YwKlO6LpL1jLKIhNCp-116" value="MainController" style="swimlane;fontStyle=1;align=center;verticalAlign=top;childLayout=stackLayout;horizontal=1;startSize=26;horizontalStack=0;resizeParent=1;resizeParentMax=0;resizeLast=0;collapsible=1;marginBottom=0;whiteSpace=wrap;html=1;" vertex="1" parent="WIyWlLk6GJQsqaUBKTNV-1">
          <mxGeometry x="-1360" y="730" width="180" height="60" as="geometry" />
        </mxCell>
        <mxCell id="z1YwKlO6LpL1jLKIhNCp-117" value="-view:MainView" style="text;strokeColor=none;fillColor=none;align=left;verticalAlign=top;spacingLeft=4;spacingRight=4;overflow=hidden;rotatable=0;points=[[0,0.5],[1,0.5]];portConstraint=eastwest;whiteSpace=wrap;html=1;" vertex="1" parent="z1YwKlO6LpL1jLKIhNCp-116">
          <mxGeometry y="26" width="180" height="34" as="geometry" />
        </mxCell>
        <mxCell id="z1YwKlO6LpL1jLKIhNCp-118" value="" style="endArrow=open;endFill=1;endSize=12;html=1;rounded=0;entryX=0.499;entryY=1.027;entryDx=0;entryDy=0;exitX=0.5;exitY=0;exitDx=0;exitDy=0;entryPerimeter=0;" edge="1" parent="WIyWlLk6GJQsqaUBKTNV-1" source="z1YwKlO6LpL1jLKIhNCp-116" target="z1YwKlO6LpL1jLKIhNCp-115">
          <mxGeometry width="160" relative="1" as="geometry">
            <mxPoint x="-1350" y="370" as="sourcePoint" />
            <mxPoint x="-1590" y="361" as="targetPoint" />
          </mxGeometry>
        </mxCell>
        <mxCell id="z1YwKlO6LpL1jLKIhNCp-119" value="" style="endArrow=open;endFill=1;endSize=12;html=1;rounded=0;entryX=0.5;entryY=0;entryDx=0;entryDy=0;" edge="1" parent="WIyWlLk6GJQsqaUBKTNV-1" source="z1YwKlO6LpL1jLKIhNCp-117" target="z1YwKlO6LpL1jLKIhNCp-70">
          <mxGeometry width="160" relative="1" as="geometry">
            <mxPoint x="-1470" y="670" as="sourcePoint" />
            <mxPoint x="-1710" y="661" as="targetPoint" />
          </mxGeometry>
        </mxCell>
        <mxCell id="z1YwKlO6LpL1jLKIhNCp-120" value="" style="endArrow=open;endFill=1;endSize=12;html=1;rounded=0;entryX=-0.04;entryY=0.935;entryDx=0;entryDy=0;exitX=1;exitY=0.5;exitDx=0;exitDy=0;entryPerimeter=0;" edge="1" parent="WIyWlLk6GJQsqaUBKTNV-1" source="z1YwKlO6LpL1jLKIhNCp-117" target="z1YwKlO6LpL1jLKIhNCp-65">
          <mxGeometry width="160" relative="1" as="geometry">
            <mxPoint x="-1100" y="740" as="sourcePoint" />
            <mxPoint x="-1340" y="731" as="targetPoint" />
          </mxGeometry>
        </mxCell>
        <mxCell id="z1YwKlO6LpL1jLKIhNCp-121" value="" style="endArrow=open;endFill=1;endSize=12;html=1;rounded=0;entryX=0.034;entryY=0.935;entryDx=0;entryDy=0;exitX=1;exitY=0.25;exitDx=0;exitDy=0;entryPerimeter=0;" edge="1" parent="WIyWlLk6GJQsqaUBKTNV-1" source="z1YwKlO6LpL1jLKIhNCp-116" target="z1YwKlO6LpL1jLKIhNCp-69">
          <mxGeometry width="160" relative="1" as="geometry">
            <mxPoint x="-1060" y="530" as="sourcePoint" />
            <mxPoint x="-1300" y="521" as="targetPoint" />
          </mxGeometry>
        </mxCell>
        <mxCell id="z1YwKlO6LpL1jLKIhNCp-122" value="" style="endArrow=open;endFill=1;endSize=12;html=1;rounded=0;entryX=0.431;entryY=1.14;entryDx=0;entryDy=0;exitX=0.75;exitY=0;exitDx=0;exitDy=0;entryPerimeter=0;" edge="1" parent="WIyWlLk6GJQsqaUBKTNV-1" source="z1YwKlO6LpL1jLKIhNCp-21" target="z1YwKlO6LpL1jLKIhNCp-61">
          <mxGeometry width="160" relative="1" as="geometry">
            <mxPoint x="-400" y="220" as="sourcePoint" />
            <mxPoint x="-640" y="211" as="targetPoint" />
          </mxGeometry>
        </mxCell>
        <mxCell id="z1YwKlO6LpL1jLKIhNCp-123" value="" style="endArrow=open;endFill=1;endSize=12;html=1;rounded=0;exitX=0.924;exitY=0.008;exitDx=0;exitDy=0;exitPerimeter=0;" edge="1" parent="WIyWlLk6GJQsqaUBKTNV-1" source="z1YwKlO6LpL1jLKIhNCp-21">
          <mxGeometry width="160" relative="1" as="geometry">
            <mxPoint x="-340" y="590" as="sourcePoint" />
            <mxPoint x="-130" y="230" as="targetPoint" />
          </mxGeometry>
        </mxCell>
        <mxCell id="z1YwKlO6LpL1jLKIhNCp-124" value="" style="endArrow=open;endFill=1;endSize=12;html=1;rounded=0;entryX=0.75;entryY=1;entryDx=0;entryDy=0;" edge="1" parent="WIyWlLk6GJQsqaUBKTNV-1" target="z1YwKlO6LpL1jLKIhNCp-51">
          <mxGeometry width="160" relative="1" as="geometry">
            <mxPoint x="-460" y="710" as="sourcePoint" />
            <mxPoint x="-740" y="931" as="targetPoint" />
          </mxGeometry>
        </mxCell>
        <mxCell id="z1YwKlO6LpL1jLKIhNCp-125" value="StockValidator" style="swimlane;fontStyle=0;align=center;verticalAlign=top;childLayout=stackLayout;horizontal=1;startSize=26;horizontalStack=0;resizeParent=1;resizeLast=0;collapsible=1;marginBottom=0;rounded=0;shadow=0;strokeWidth=1;" vertex="1" parent="WIyWlLk6GJQsqaUBKTNV-1">
          <mxGeometry x="1350" y="-20" width="200" height="70" as="geometry">
            <mxRectangle x="230" y="140" width="160" height="26" as="alternateBounds" />
          </mxGeometry>
        </mxCell>
        <mxCell id="z1YwKlO6LpL1jLKIhNCp-126" value="+validate(t: Product): void" style="text;align=left;verticalAlign=top;spacingLeft=4;spacingRight=4;overflow=hidden;rotatable=0;points=[[0,0.5],[1,0.5]];portConstraint=eastwest;" vertex="1" parent="z1YwKlO6LpL1jLKIhNCp-125">
          <mxGeometry y="26" width="200" height="24" as="geometry" />
        </mxCell>
        <mxCell id="z1YwKlO6LpL1jLKIhNCp-127" value="PriceValidator" style="swimlane;fontStyle=0;align=center;verticalAlign=top;childLayout=stackLayout;horizontal=1;startSize=26;horizontalStack=0;resizeParent=1;resizeLast=0;collapsible=1;marginBottom=0;rounded=0;shadow=0;strokeWidth=1;" vertex="1" parent="WIyWlLk6GJQsqaUBKTNV-1">
          <mxGeometry x="1360" y="168" width="200" height="70" as="geometry">
            <mxRectangle x="230" y="140" width="160" height="26" as="alternateBounds" />
          </mxGeometry>
        </mxCell>
        <mxCell id="z1YwKlO6LpL1jLKIhNCp-128" value="+validate(t: Product): void" style="text;align=left;verticalAlign=top;spacingLeft=4;spacingRight=4;overflow=hidden;rotatable=0;points=[[0,0.5],[1,0.5]];portConstraint=eastwest;" vertex="1" parent="z1YwKlO6LpL1jLKIhNCp-127">
          <mxGeometry y="26" width="200" height="24" as="geometry" />
        </mxCell>
        <mxCell id="z1YwKlO6LpL1jLKIhNCp-129" value="" style="endArrow=open;endFill=1;endSize=12;html=1;rounded=0;entryX=0;entryY=0.5;entryDx=0;entryDy=0;exitX=1;exitY=0.5;exitDx=0;exitDy=0;" edge="1" parent="WIyWlLk6GJQsqaUBKTNV-1" source="z1YwKlO6LpL1jLKIhNCp-36" target="z1YwKlO6LpL1jLKIhNCp-126">
          <mxGeometry width="160" relative="1" as="geometry">
            <mxPoint x="1410" y="410" as="sourcePoint" />
            <mxPoint x="1270" y="428" as="targetPoint" />
          </mxGeometry>
        </mxCell>
        <mxCell id="z1YwKlO6LpL1jLKIhNCp-130" value="" style="endArrow=open;endFill=1;endSize=12;html=1;rounded=0;entryX=0;entryY=0.5;entryDx=0;entryDy=0;exitX=1;exitY=0.5;exitDx=0;exitDy=0;" edge="1" parent="WIyWlLk6GJQsqaUBKTNV-1" source="z1YwKlO6LpL1jLKIhNCp-38" target="z1YwKlO6LpL1jLKIhNCp-127">
          <mxGeometry width="160" relative="1" as="geometry">
            <mxPoint x="1310" y="420" as="sourcePoint" />
            <mxPoint x="1170" y="438" as="targetPoint" />
          </mxGeometry>
        </mxCell>
        <mxCell id="z1YwKlO6LpL1jLKIhNCp-131" value="" style="endArrow=block;dashed=1;endFill=0;endSize=12;html=1;rounded=0;exitX=0.5;exitY=0;exitDx=0;exitDy=0;entryX=1;entryY=0.25;entryDx=0;entryDy=0;" edge="1" parent="WIyWlLk6GJQsqaUBKTNV-1" source="z1YwKlO6LpL1jLKIhNCp-125" target="z1YwKlO6LpL1jLKIhNCp-132">
          <mxGeometry width="160" relative="1" as="geometry">
            <mxPoint x="1150" y="579.1800000000001" as="sourcePoint" />
            <mxPoint x="950" y="-130" as="targetPoint" />
          </mxGeometry>
        </mxCell>
        <mxCell id="z1YwKlO6LpL1jLKIhNCp-132" value="Validator&lt;T&gt;" style="swimlane;fontStyle=0;align=center;verticalAlign=top;childLayout=stackLayout;horizontal=1;startSize=26;horizontalStack=0;resizeParent=1;resizeLast=0;collapsible=1;marginBottom=0;rounded=0;shadow=0;strokeWidth=1;" vertex="1" parent="WIyWlLk6GJQsqaUBKTNV-1">
          <mxGeometry x="790" y="-120" width="200" height="70" as="geometry">
            <mxRectangle x="230" y="140" width="160" height="26" as="alternateBounds" />
          </mxGeometry>
        </mxCell>
        <mxCell id="z1YwKlO6LpL1jLKIhNCp-133" value="+validate(t: T): void" style="text;align=left;verticalAlign=top;spacingLeft=4;spacingRight=4;overflow=hidden;rotatable=0;points=[[0,0.5],[1,0.5]];portConstraint=eastwest;" vertex="1" parent="z1YwKlO6LpL1jLKIhNCp-132">
          <mxGeometry y="26" width="200" height="24" as="geometry" />
        </mxCell>
        <mxCell id="z1YwKlO6LpL1jLKIhNCp-134" value="" style="endArrow=block;dashed=1;endFill=0;endSize=12;html=1;rounded=0;exitX=0.5;exitY=0;exitDx=0;exitDy=0;entryX=1.017;entryY=1.402;entryDx=0;entryDy=0;entryPerimeter=0;" edge="1" parent="WIyWlLk6GJQsqaUBKTNV-1" source="z1YwKlO6LpL1jLKIhNCp-127" target="z1YwKlO6LpL1jLKIhNCp-133">
          <mxGeometry width="160" relative="1" as="geometry">
            <mxPoint x="1050" y="-120" as="sourcePoint" />
            <mxPoint x="950" y="-170" as="targetPoint" />
          </mxGeometry>
        </mxCell>
        <mxCell id="z1YwKlO6LpL1jLKIhNCp-135" value="" style="endArrow=block;dashed=1;endFill=0;endSize=12;html=1;rounded=0;entryX=0.25;entryY=1;entryDx=0;entryDy=0;exitX=0.886;exitY=0.049;exitDx=0;exitDy=0;exitPerimeter=0;" edge="1" parent="WIyWlLk6GJQsqaUBKTNV-1" source="z1YwKlO6LpL1jLKIhNCp-58" target="z1YwKlO6LpL1jLKIhNCp-132">
          <mxGeometry width="160" relative="1" as="geometry">
            <mxPoint x="210" as="sourcePoint" />
            <mxPoint x="1009" y="65" as="targetPoint" />
          </mxGeometry>
        </mxCell>
        <mxCell id="z1YwKlO6LpL1jLKIhNCp-136" value="" style="endArrow=block;dashed=1;endFill=0;endSize=12;html=1;rounded=0;exitX=1;exitY=0.5;exitDx=0;exitDy=0;entryX=0.5;entryY=1;entryDx=0;entryDy=0;" edge="1" parent="WIyWlLk6GJQsqaUBKTNV-1" source="z1YwKlO6LpL1jLKIhNCp-50" target="z1YwKlO6LpL1jLKIhNCp-132">
          <mxGeometry width="160" relative="1" as="geometry">
            <mxPoint x="10" y="-140" as="sourcePoint" />
            <mxPoint x="739" y="65" as="targetPoint" />
          </mxGeometry>
        </mxCell>
        <mxCell id="z1YwKlO6LpL1jLKIhNCp-137" value="" style="endArrow=block;dashed=1;endFill=0;endSize=12;html=1;rounded=0;exitX=1;exitY=0.5;exitDx=0;exitDy=0;entryX=0.75;entryY=1;entryDx=0;entryDy=0;" edge="1" parent="WIyWlLk6GJQsqaUBKTNV-1" source="z1YwKlO6LpL1jLKIhNCp-52" target="z1YwKlO6LpL1jLKIhNCp-132">
          <mxGeometry width="160" relative="1" as="geometry">
            <mxPoint x="-300" y="1090" as="sourcePoint" />
            <mxPoint x="429" y="1295" as="targetPoint" />
          </mxGeometry>
        </mxCell>
        <mxCell id="z1YwKlO6LpL1jLKIhNCp-139" value="" style="endArrow=open;endFill=1;endSize=12;html=1;rounded=0;exitX=1;exitY=0.5;exitDx=0;exitDy=0;entryX=0;entryY=0.5;entryDx=0;entryDy=0;" edge="1" parent="WIyWlLk6GJQsqaUBKTNV-1" source="z1YwKlO6LpL1jLKIhNCp-22" target="zkfFHV4jXpPFQw0GAbJ--1">
          <mxGeometry width="160" relative="1" as="geometry">
            <mxPoint x="-140" y="390" as="sourcePoint" />
            <mxPoint x="-50" y="279" as="targetPoint" />
          </mxGeometry>
        </mxCell>
        <mxCell id="z1YwKlO6LpL1jLKIhNCp-140" value="" style="endArrow=open;endFill=1;endSize=12;html=1;rounded=0;exitX=0.993;exitY=0.162;exitDx=0;exitDy=0;exitPerimeter=0;" edge="1" parent="WIyWlLk6GJQsqaUBKTNV-1" source="z1YwKlO6LpL1jLKIhNCp-32">
          <mxGeometry width="160" relative="1" as="geometry">
            <mxPoint x="-310" y="720" as="sourcePoint" />
            <mxPoint x="-230" y="650" as="targetPoint" />
          </mxGeometry>
        </mxCell>
        <mxCell id="z1YwKlO6LpL1jLKIhNCp-141" value="" style="endArrow=open;endFill=1;endSize=12;html=1;rounded=0;exitX=0.319;exitY=-0.012;exitDx=0;exitDy=0;exitPerimeter=0;entryX=1.011;entryY=0.172;entryDx=0;entryDy=0;entryPerimeter=0;" edge="1" parent="WIyWlLk6GJQsqaUBKTNV-1" source="z1YwKlO6LpL1jLKIhNCp-35" target="z1YwKlO6LpL1jLKIhNCp-5">
          <mxGeometry width="160" relative="1" as="geometry">
            <mxPoint x="610" y="-210" as="sourcePoint" />
            <mxPoint x="700" y="-321" as="targetPoint" />
          </mxGeometry>
        </mxCell>
      </root>
    </mxGraphModel>
  </diagram>
</mxfile>
